<svg xmlns="http://www.w3.org/2000/svg" width="600" height="400" viewBox="0 0 600 400"><defs><pattern id="grid" width="32" height="32" patternUnits="userSpaceOnUse"><path d="M32 0H0V32" fill="none" stroke="#9db8af" stroke-opacity=".08"/></pattern><linearGradient id="paper" x2=".8" y2="1"><stop stop-color="#263733"/><stop offset="1" stop-color="#101a18"/></linearGradient></defs><rect width="600" height="400" fill="#09120f"/><rect width="600" height="400" fill="url(#grid)"/><path d="M32 365H568" stroke="#7bdda4" stroke-opacity=".35"/><g fill="none" stroke="#29443a" stroke-width="15"><path d="M0 270 600 91M85 0l120 400M364 0l116 400M0 87l600 242"/></g><g fill="none" stroke="#507062"><path d="M0 270 600 91M85 0l120 400M364 0l116 400M0 87l600 242"/></g><path d="m114 255 172-51 95 47 91-27" fill="none" stroke="#8be3b1" stroke-width="5" stroke-linecap="round"/><g transform="translate(78 154)"><path d="M0 0h122v71H69L36 103 37 71H0z" fill="url(#paper)" stroke="#7bdda4"/><text x="21" y="43" fill="#d7f3e4" font-size="19" font-family="Arial, sans-serif">Rider</text></g><g transform="translate(231 70)"><path d="M0 0h156v75H97L55 132 57 75H0z" fill="url(#paper)" stroke="#7bdda4"/><text x="28" y="44" fill="#d7f3e4" font-size="19" font-family="Arial, sans-serif">Provider</text></g><g transform="translate(386 269)"><rect width="162" height="64" rx="5" fill="url(#paper)" stroke="#d6ca96"/><text x="20" y="38" fill="#ede2b9" font-size="18" font-family="Arial, sans-serif">Community</text></g><g fill="#e2ffef" stroke="#173a28" stroke-width="5"><circle cx="114" cy="255" r="10"/><circle cx="286" cy="204" r="10"/><circle cx="472" cy="224" r="10"/></g></svg>
