<svg xmlns="http://www.w3.org/2000/svg" width="600" height="400" viewBox="0 0 600 400"><defs><pattern id="grid" width="32" height="32" patternUnits="userSpaceOnUse"><path d="M32 0H0V32" fill="none" stroke="#9db8af" stroke-opacity=".08"/></pattern><linearGradient id="paper" x2=".8" y2="1"><stop stop-color="#263733"/><stop offset="1" stop-color="#101a18"/></linearGradient></defs><rect width="600" height="400" fill="#09120f"/><rect width="600" height="400" fill="url(#grid)"/><path d="M32 365H568" stroke="#51d7e5" stroke-opacity=".35"/><g fill="url(#paper)" stroke="#577773"><path d="m35 100 112-24 28 95-112 24z"/><path d="m49 241 101-20 22 86-101 20z"/><path d="m204 40 108 15-11 90-108-15z"/></g><g stroke="#73c7cd" fill="none"><path d="M78 124l48-11M83 141l62-14M80 274l44-10M85 292l64-14M222 75l66 9m-69 10 48 7" stroke-width="4"/><path d="M171 134C254 129 241 210 343 185M167 270C247 270 238 225 343 215M291 133C307 158 302 155 343 155" stroke-width="2"/></g><g transform="translate(341 117) rotate(5)"><rect width="206" height="198" rx="7" fill="url(#paper)" stroke="#51d7e5"/><path d="M0 37H206" stroke="#3d6665"/><text x="17" y="25" fill="#91e4e9" font-size="12" font-family="Arial, sans-serif">SIGNAL VIEW</text><circle cx="23" cy="66" r="5" fill="#51d7e5"/><text x="39" y="71" fill="#cbd5d3" font-size="12" font-family="Arial, sans-serif">News</text><path d="M39 84h126" stroke="#647a72"/><circle cx="23" cy="113" r="5" fill="#b69bf3"/><text x="39" y="118" fill="#cbd5d3" font-size="12" font-family="Arial, sans-serif">Security</text><path d="M39 131h126" stroke="#647a72"/><circle cx="23" cy="160" r="5" fill="#99d6ab"/><text x="39" y="165" fill="#cbd5d3" font-size="12" font-family="Arial, sans-serif">Local conditions</text><path d="M39 178h126" stroke="#647a72"/></g></svg>
